<svg xmlns="http://www.w3.org/2000/svg">
  <!-- Original bitmap designs belong to Niantic. Traced by hand and optimized with Inkscape. -->
  <symbol id="bug-symbol" viewBox="0 0 256 256"><path d="m108.5 59.306c-4.9726-6.6578-13.082 1.6299-9.8694 6.4358 4.964 7.4254 10.786 15.145 10.786 15.145-4.7513 1.6601-7.3258 2.9773-10.875 5.4961 12.766 21.639 44.994 24.043 60.164-0.51562-1.8891-2.4615-8.13-4.8644-11.908-5.4941 0 0 7.3043-9.2472 10.673-14.541 3.7994-5.9711-4.2159-13.423-9.8377-6.0927-3.6895 4.8105-13.085 17.999-13.085 17.999-3.2788-1.1334-9.7441-0.90732-12.537 0.63086 0 0-6.515-9.6978-13.51-19.063zm58.734 32.458c-4.8086 8.7585-15.799 18.204-28.393 20.552-13.052 29.538-2.005 61.08 14.253 76.193 42.361-19.463 43.679-71.327 14.141-96.744zm-77.166 0.91602c-28.497 26.878-26.967 73.999 14.482 95.371 17.163-14.248 26.655-44.706 14.025-75.793-12.823-2.6333-21.753-9.732-28.508-19.578z"/></symbol>
  <symbol id="dark-symbol" viewBox="0 0 256 256"><path d="m128 67.078a60.922 60.922 0 0 0-60.922 60.922 60.922 60.922 0 0 0 60.922 60.922 60.922 60.922 0 0 0 60.922-60.922 60.922 60.922 0 0 0-60.922-60.922zm-0.20312 13.367a47.554 47.554 0 0 1 47.555 47.555 47.554 47.554 0 0 1-47.555 47.555 47.554 47.554 0 0 1-7.9238-0.66602 57.065 57.065 0 0 0 24.541-46.889 57.065 57.065 0 0 0-24.541-46.889 47.554 47.554 0 0 1 7.9238-0.66602z"/></symbol>
  <symbol id="dragon-symbol" viewBox="0 0 256 256"><path d="m140.82 48.143c-5.9804 14.077-34.182 35.538-52.307 48.143l-21.338 36.953 67.346-15.516c3.1282-6.6244 4.1559-11.93 0.57422-19.096 4.0128 5.197 4.6019 8.8361 3.7246 15.299 14.537 7.5445 20.257 22.844 15.012 35.707-7.555 18.527-35.004 19.611-43.322 10.1-2.8274-3.2329-4.8674-2.8127-1.9707 1.5 0.73987 1.1015 5.2182 5.5769 7.1699 6.5527-7.0913-1.4963-13.244-8.0028-15.68-10.475-3.3315-3.3813-3.8046-2.2076-2.0156 0.97461 2.3568 4.1924 7.6765 11.907 18.736 14.574-19.062-1.8867-28.018-17.666-30.383-21.34-1.572-2.4426-2.6853-1.9242-1.5605 1.1719 1.4379 3.958 10.928 22.229 32.594 27.715-28.041-4.3523-37.98-29.459-39.295-34.254-1.4726-5.3697-2.6097-7.3263-1.9844 0.61914 0.7607 9.6649 17.142 45.539 56.764 45.539 27.823 0 55.949-24.483 55.949-57.121 0-25.153-21.62-57.743-58.553-56.209 4.3243-4.1403 11.459-23.937 10.539-30.838zm-32.662 48.371c4.0483 12.145-9.3851 18.861-17.85 17.205 2.0241-3.8642 10.581-13.617 17.85-17.205z"/></symbol>
  <symbol id="electric-symbol" viewBox="0 0 256 256"><path d="m116.3 118.68h-30.059l63.889 86.627-18.08-61.782h37.712l-22.184-71.875h-46.364z"/></symbol>
  <symbol id="fairy-symbol" viewBox="0 0 256 256"><path d="m127.77 69.178-16.814 29.969-17.158-4.9199 5.6055 17.158-30.369 16.643 30.197 16.244-5.4902 17.729 17.443-5.4336 16.643 30.256 16.473-30.084 17.615 5.2617-5.4902-17.387 30.541-16.699-30.199-16.357 4.8613-17.215-17.328 5.2051zm0.0566 39.404 6.6914 12.697 12.525 6.8066-12.525 6.748-6.748 12.525-7.0918-12.811-12.467-6.6348 13.096-6.8066z"/></symbol>
  <symbol id="fighting-symbol" viewBox="0 0 256 256"><path d="m90.959 126.49c0 4.6809 1.9086 5.1732 1.9086 3.6152 0-12.836-0.61181-42.391-0.10821-47.144 1.1824-11.158 16.163-15.16 22.453-4.7058 5.4474-7.2373 19.122-8.3966 22.75 4.4252 8.3665-7.0627 19.343-1.2377 21.596 8.3353 9.5148-7.3808 20.511 3.1429 20.707 10.029 0.0943 3.3098-2e-3 35.761 0 45.207-13.681 61.55-104.57 44.568-104.57-13.57 0-14.232 6.0525-22.535 15.267-27.406 0 7.9848 0.02835 15.359 0 21.214z"/></symbol>
  <symbol id="fire-symbol" viewBox="0 0 256 256"><path d="m123.56 56.343c16.714 23.071-6.9072 41.811-13.532 47.809-3.7154 3.3639-20.379 14.223-20.742 27.841-3.2783-3.4969-4.3813-9.2617-3.2721-13.976-12.367 14.087-8.9967 45.799 7.2652 61.338 18.081 17.277 46.873 23.377 73.099-3.7747-10.934 9.6828-28.945 15.765-45.813 3.8856-11.154-7.8546-12.868-23.813-8.3189-36.049-0.14229 8.3379 2.5438 15.641 10.315 18.967-6.5277-4.2555-7.5227-13.841-2.5511-18.967 7.2314-7.4566 18.221-3.6168 21.296 4.4367 1.7682 4.631 0.049 14.638-12.867 16.582 10.314 2.2983 25.513-7.6892 22.073-21.241 8.2997 13.541 3.2748 28.522-9.0953 33.276 21.463-1.9965 36.215-19.817 36.215-41.65 0-13.777-7.487-35.438-32.998-40.263 3.4902 1.7647 10.048 6.9808 9.9827 12.811-0.0366 3.2642-1.0695 9.3309-7.0433 9.6499-6.0614 0.32369-8.4072-4.9747-8.208-9.0399 0.21537-4.3953 2.1632-10.18 2.2777-15.352 0.12524-5.659-2.561-23.336-18.084-36.284z"/></symbol>
  <symbol id="flying-symbol" viewBox="0 0 256 256"><path d="m192.43 72.129c-4.7185 28.444-47.773 44.548-64.93 49.336-0.77978 0.21761-0.67315 3.6028 0.56669 3.3538 8.0424-1.6156 37.633-4.6064 53.74-18.801-9.2656 23.68-42.105 31.416-54.78 35.752-0.99317 0.33972-0.64573 3.0257 0.83159 3.0266 6.9444 4e-3 26.022-3.1291 37.92-11.072-6.0402 15.788-31.28 22.794-38.335 24.378-1.0495 0.23566-0.32895 3.5821 0.43832 3.5296 3.3968-0.23251 16.542-1.3102 24.691-6.364-1.8318 6.4718-13.106 24.099-37.17 24.844-45.215 1.4013-64.242-63.144-12.136-77.3 19.559-5.314 66.257-10.172 89.163-30.683z"/></symbol>
  <symbol id="ghost-symbol" viewBox="0 0 256 256"><path d="m127.96 71.342c-29.83 0.03339-53.907 24.166-53.908 53.91-7.19e-4 26.006 18.666 47.731 44.123 53.045 19.532 4.0772 45.012 6.2196 58.869-7.374-3.287-0.47029-9.9453-4.5896-9.9453-8.5107 9.5283-10.026 14.842-23.329 14.842-37.16-1.8e-4 -29.792-24.151-53.944-53.98-53.91zm18.447 39.326c16.029 10.767-10.928 27.686-13.438 7.2852 8.3386 0.40479 11.737-2.6706 13.438-7.2852zm-38.697 0.0801c0.46072 7.0503 9.935 8.9686 13.277 7.2051-3.3664 19.397-28.228 3.7272-13.277-7.2051z"/></symbol>
  <symbol id="grass-symbol" viewBox="0 0 256 256"><path d="m84.235 180.24c-26.731-25.955-24.105-57.7-7.5294-77.804 23.519-28.524 81.666-32.276 100.08-32.941 4.9913 21.962 13.814 72.251-5.1036 102.21-13.62 21.568-46.709 34.94-77.877 15.751l20.235-29.49 31.686-6.902-25.412-2.6667 10.039-14.431 22.431-3.9216-17.098-3.451 23.365-34.762-27.443 32.252-7.3725-16.157 1.4308 22.604-11.156 13.945-9.2549-24.627 1.5686 33.412z"/></symbol>
  <symbol id="ground-symbol" viewBox="0 0 256 256"><path d="m125.65 78.143-32.169 90.387h98.211l-32.722-90.387zm-36.973 29.707-22.729 60.68h16.775l21.982-60.68z"/></symbol>
  <symbol id="ice-symbol" viewBox="0 0 256 256"><path d="m166.31 63.392-35.371 20.084v38.308l35.371-18.353zm-75.764 0v40.04l35.059 18.353v-38.308zm-0.23633 46.354-35.215 17.882 35.451 19.295 33.961-19.295zm75.688 0-33.961 17.882 34.195 19.295 34.666-19.295zm-40.314 23.254-35.295 19.687v39.922l35.295-18.588zm5.1758 0v41.021l35.451 18.588v-39.922z"/></symbol>
  <symbol id="normal-symbol" viewBox="0 0 256 256"><circle cx="128" cy="128" r="46.5" fill="none" stroke-width="26.457"/></symbol>
  <symbol id="poison-symbol" viewBox="0 0 256 256"><path d="m127.71 69.26c-52.924 0-79.043 56.408-38.295 87.42-8.5814 18.944 15.182 39.613 26.678 16.945 9.2291 16.839 23.341 7.9537 25.932 0.34375 9.5091 18.814 35.628 5.646 26.561-17.346 39.986-30.823 15.67-87.363-40.875-87.363zm1.334 20.764a38.535 29.468 0 0 1 38.535 29.469 38.535 29.468 0 0 1-38.535 29.469 38.535 29.468 0 0 1-38.535-29.469 38.535 29.468 0 0 1 38.535-29.469z"/></symbol>
  <symbol id="psychic-symbol" viewBox="0 0 256 256"><path d="m176.16 166.9c-8.1568 9.098-23.744 16.784-46.902 16.784-30.954 0-57.569-23.317-57.569-58.823 0-29.144 26.093-53.961 55.843-53.961 29.857 0 51.592 20.739 51.451 48.941-0.11218 22.5-17.038 39.716-39.059 40.471-24.308 0-34.98-17.914-34.98-30.745 0-16.872 12.483-27.922 24.941-27.922 12.646 0 22.274 10.572 22.274 19.294 0 11.3-8.3012 16.627-16 16.627-5.8484 0-12.549-4.7647-12.549-10.51 0-1.7729 0.19921-3.2779 0.78431-4.7843 0.738-1.9001 3.8635-1.1773 3.6078 0.47058-0.20506 1.3216-0.31373 2.6626-0.31373 4 0 1.6904 2.7209 5.098 7.3725 5.098 3.8886 0 8.549-3.6772 8.549-8.6274 0-6.6411-5.8284-11.686-11.294-11.686-6.1429 0-15.608 3.9646-15.608 16.078 0 7.6014 6.5899 17.49 20 17.49 10.521 0 24-7.6125 24-24.941 0-14.868-12.341-29.725-33.255-29.725-20.727 0-37.49 19.195-37.49 39.765 0 24.637 18.833 47.608 52.078 47.608 16.066 0 27.529-5.5686 34.118-10.902z"/></symbol>
  <symbol id="rock-symbol" viewBox="0 0 256 256"><path d="m109.21 85.328-38.859 46.713v26.229l25.582 7.6914 58.531-38.615 7.043-42.018zm62.336 1.7012-6.9623 41.368 12.954 19.511 12.062-9.0664zm-14.572 48.734-49.582 33.453 27.82 8.8144 34.797-24.295z"/></symbol>
  <symbol id="steel-symbol" viewBox="0 0 256 256"><path d="m94.819 69.438-34.148 58.602 34.148 58.521h67.262l33.248-58.521-33.248-58.602zm33.07 26.826a31.735 31.735 0 0 1 0.11133 0 31.735 31.735 0 0 1 31.734 31.734 31.735 31.735 0 0 1-31.734 31.736 31.735 31.735 0 0 1-31.736-31.736 31.735 31.735 0 0 1 31.625-31.734z"/></symbol>
  <symbol id="water-symbol" viewBox="0 0 256 256"><path d="m127.88 69.772c-4.7404 8.2106-38.902 55.393-38.902 77.961 0 19.688 17.51 38.495 38.195 38.495 19.333 0 39.844-16.678 39.844-38.573 0-22.621-33.813-69.675-39.137-77.883zm-18.117 71.137c-1.9535 11.636 6.4081 18.641 12.562 20.251 9.937 2.6002 19.139 0.27272 24.458-9.8972 0.50888 13.887-12.542 23.263-26.239 19.899-13.223-3.2482-20.99-19.671-10.781-30.252z"/></symbol>
</svg>